<svg width="22" height="22" xmlns="http://www.w3.org/2000/svg">
    <path d="M4.913 3.968a.315.315 0 1 0 0-.63.315.315 0 0 0 0 .63zm-2.52 0a.315.315 0 1 0 0-.63.315.315 0 0 0 0 .63zm1.26 0a.315.315 0 1 0 0-.63.315.315 0 0 0 0 .63zm-.07 3.337h2.855a.427.427 0 0 0 .415-.317.427.427 0 0 0-.196-.485l-.433-.256A3.651 3.651 0 0 0 7.306 3.63 3.672 3.672 0 0 0 3.706 0 3.656 3.656 0 0 0 0 3.653c0 1.945 1.603 3.61 3.584 3.652zM1.532 1.5A3 3 0 0 1 3.697.63a3.039 3.039 0 0 1 2.979 3.003 3.022 3.022 0 0 1-1.037 2.298.461.461 0 0 0 .068.742l.004.002H3.593A3.03 3.03 0 0 1 .63 3.653c0-.816.32-1.58.9-2.153zm19.658 19.374h-.315v-4.691a3.114 3.114 0 0 0-1.854-2.845l-1.66-.711a2.487 2.487 0 0 0 1.066-.67 2.61 2.61 0 0 0 .705-1.771c0-.597-.209-1.16-.603-1.63a3.261 3.261 0 0 1-.766-2.098v-1.51a4.915 4.915 0 0 0-1.45-3.498 4.916 4.916 0 0 0-3.5-1.45 4.954 4.954 0 0 0-4.948 4.949v1.46c0 .793-.312 1.55-.818 2.161a2.525 2.525 0 0 0-.346 2.71c.315.671.883 1.153 1.564 1.357l-1.649.717a3.104 3.104 0 0 0-1.904 2.867v3.708a.315.315 0 1 0 .63 0v-3.708c0-1 .596-1.898 1.522-2.288l2.066-.898v1.896h-.95a.946.946 0 0 0-.939 1.045l.52 4.898H.314a.315.315 0 1 0 0 .63h20.874a.315.315 0 1 0 0-.63zM18.046 8.962c.298.354.455.777.455 1.224 0 .49-.194.979-.534 1.339a1.886 1.886 0 0 1-1.388.59h-.41l-.54-.23a1.437 1.437 0 0 1-.86-1.134 3.1 3.1 0 0 0 1.635-2.73V5.654a4.078 4.078 0 0 0 .728-.015v.82c0 .915.325 1.804.914 2.504zm-5.156 4.973a11.67 11.67 0 0 1-3.33-.424v-.75l.09-.04h.002l.562-.245a2.069 2.069 0 0 0 1.202-1.48c.274.08.564.124.864.124h1.026c.3 0 .591-.044.867-.125.138.648.582 1.2 1.208 1.469l.6.257.045.02v.708c-1.02.304-2.073.467-3.136.486zm3.136.17v.826H9.559v-.768a12.312 12.312 0 0 0 6.467-.058zm1.106-9.103c-.867.118-1.846-.115-2.52-.637a.315.315 0 0 0-.385.498c.44.341.972.582 1.547.703v1.715c-.151.345-.32.632-.7.945-.16.132-.335.242-.522.329a.924.924 0 0 0-.822-.504h-.739a.924.924 0 0 0 0 1.847h.739c.428 0 .79-.294.893-.69.421-.16 1.108-.734 1.109-.734a2.472 2.472 0 0 1-2.426 2.015H12.28a2.47 2.47 0 0 1-2.468-2.468V5.587a8.447 8.447 0 0 0 3.007-1.078 8.557 8.557 0 0 0 2.863-2.788 4.316 4.316 0 0 1 1.45 3.281zm-3.11 3.973a.294.294 0 0 1-.292.293h-.739a.294.294 0 0 1 0-.587h.739c.161 0 .292.131.293.292v.002zM8.495 4.95a4.324 4.324 0 0 1 6.687-3.613 7.931 7.931 0 0 1-2.683 2.63 7.832 7.832 0 0 1-2.981 1.027H8.494v-.044zM7.27 11.013a1.9 1.9 0 0 1 .26-2.04c.602-.725.965-1.62.964-2.564v-.786h.688v2.399a3.1 3.1 0 0 0 1.635 2.73c-.06.502-.382.941-.854 1.146l-.5.218h-.457a1.901 1.901 0 0 1-1.736-1.103zm10.966 4.896-.526 4.965H8.193l-.526-4.965a.311.311 0 0 1 .079-.244.311.311 0 0 1 .234-.104h9.943c.09 0 .173.037.234.104.06.068.089.154.08.244zm2.008 4.965h-1.9l.519-4.898a.946.946 0 0 0-.94-1.045h-1.267v-1.92l2.113.905a2.482 2.482 0 0 1 1.475 2.267v4.691zm-7.293-3.854a1.198 1.198 0 0 0 0 2.394c.66 0 1.197-.536 1.197-1.197 0-.66-.537-1.197-1.197-1.197zm0 1.765a.568.568 0 1 1 .002-1.136.568.568 0 0 1-.002 1.136z" fill="#505050" fill-rule="nonzero"/>
</svg>
