<svg width="155" height="148" xmlns="http://www.w3.org/2000/svg">
    <g fill-rule="nonzero" fill="none">
        <g fill="#DDD">
            <path d="M88.397.904a3.2 3.2 0 0 0-2.714-.64l-83.2 19.2A3.2 3.2 0 0 0 0 22.614v108.8a3.2 3.2 0 0 0 2.713 3.16l83.2 12.801a3.2 3.2 0 0 0 3.687-3.161V3.414c.003-.977-.44-1.9-1.203-2.51z"/>
            <path d="M150.4 134.613h-64a3.2 3.2 0 0 1 0-6.4h60.8v-108.8H86.4a3.2 3.2 0 0 1 0-6.4h64a3.2 3.2 0 0 1 3.2 3.2v115.2a3.2 3.2 0 0 1-3.2 3.2z"/>
        </g>
        <g fill="#FFF">
            <path d="M60.8 102.613a3.2 3.2 0 0 1-2.713-1.504l-32-51.2a3.2 3.2 0 1 1 5.427-3.386l32 51.2a3.2 3.2 0 0 1-2.714 4.89z"/>
            <path d="M28.8 102.613a3.2 3.2 0 0 1-2.707-4.896l32-51.2a3.2 3.2 0 1 1 5.427 3.386l-32 51.2a3.2 3.2 0 0 1-2.72 1.51z"/>
        </g>
        <g fill="#DDD">
            <path d="M112 134.613a3.2 3.2 0 0 1-3.2-3.2v-115.2a3.2 3.2 0 0 1 6.4 0v115.2a3.2 3.2 0 0 1-3.2 3.2z"/>
            <path d="M150.4 115.413h-64a3.2 3.2 0 0 1 0-6.4h64a3.2 3.2 0 0 1 0 6.4zM150.4 96.213h-64a3.2 3.2 0 0 1 0-6.4h64a3.2 3.2 0 0 1 0 6.4zM150.4 77.013h-64a3.2 3.2 0 0 1 0-6.4h64a3.2 3.2 0 0 1 0 6.4zM150.4 57.813h-64a3.2 3.2 0 0 1 0-6.4h64a3.2 3.2 0 0 1 0 6.4zM150.4 38.613h-64a3.2 3.2 0 0 1 0-6.4h64a3.2 3.2 0 0 1 0 6.4z"/>
        </g>
    </g>
</svg>
