<svg width="23" height="23" xmlns="http://www.w3.org/2000/svg">
    <g fill="#505050" fill-rule="nonzero">
        <path d="M11.2 0C5.014 0 0 5.014 0 11.2c0 6.186 5.014 11.2 11.2 11.2 6.186 0 11.2-5.014 11.2-11.2A11.2 11.2 0 0 0 11.2 0zm0 21.467C5.53 21.467.933 16.87.933 11.2.933 5.53 5.53.933 11.2.933c5.67 0 10.267 4.597 10.267 10.267A10.267 10.267 0 0 1 11.2 21.467z"/>
        <path d="m11.727 10.7.57-4.993c.6.155 1.175.399 1.703.724l.467-.808a6.949 6.949 0 0 0-2.068-.854l.201-1.684-.933-.108-.192 1.69h-.042c-1.782 0-3.462 1.498-3.462 3.084 0 1.442.905 2.595 2.753 3.514l-.625 5.46a5.175 5.175 0 0 1-1.834-.756l-.094-.056-.466.803.093.056c.67.439 1.42.738 2.207.882L9.8 19.315l.933.108.192-1.69h.042c1.95 0 3.966-1.241 3.966-3.322 0-1.694-.844-2.674-3.206-3.71zM8.904 7.752c0-1.045 1.237-2.109 2.469-2.146l-.537 4.662c-1.293-.714-1.932-1.54-1.932-2.516zm2.128 9.049.583-5.133C13.617 12.6 14 13.337 14 14.41c0 1.619-1.717 2.361-2.968 2.389z"/>
    </g>
</svg>
