<svg width="23" height="20" xmlns="http://www.w3.org/2000/svg">
    <g fill="#505050" fill-rule="nonzero">
        <path d="M5.6.155v15.953c0 1.19-1.045 2.155-2.333 2.155-1.289 0-2.334-.965-2.334-2.155V9.64c0-.476.418-.862.934-.862.515 0 .933.386.933.862v5.605h.933V9.64c0-.952-.835-1.724-1.866-1.724C.836 7.916 0 8.688 0 9.64v6.468c0 1.666 1.463 3.018 3.267 3.018h15.866c1.804 0 3.267-1.352 3.267-3.018V.155H5.6zm15.867 15.953c0 1.19-1.045 2.155-2.334 2.155H5.55a2.91 2.91 0 0 0 .984-2.155V1.018h14.934v15.09z"/>
        <path d="M18.667 3.604H9.333V9.64h9.334V3.604zm-.934 5.174h-7.466V4.467h7.466v4.311zM9.333 11.365h9.333v1H9.333zM9.333 13.952h7v1h-7z"/>
    </g>
</svg>
