<svg width="24" height="24" xmlns="http://www.w3.org/2000/svg">
    <path d="M18.01 14.549a2.98 2.98 0 0 0-1.844.216l-2.068.893a20.342 20.342 0 0 1-3.668-2.91 19.872 19.872 0 0 1-2.88-3.72l.677-1.862c.24-.565.302-1.189.178-1.79L7.027 0 0 1.013l.029.427a23.18 23.18 0 0 0 6.657 14.88 22.853 22.853 0 0 0 15.15 6.72h.455l.749-7.315-5.03-1.176zm3.422 7.488a21.864 21.864 0 0 1-14.064-6.36A22.224 22.224 0 0 1 1.013 1.834l5.28-.764 1.142 4.517c.082.416.035.846-.134 1.234L6.48 9.12l.12.197a21.12 21.12 0 0 0 3.149 4.123 21.706 21.706 0 0 0 4.046 3.178l.216.139 2.554-1.1a1.992 1.992 0 0 1 1.243-.153l4.2.96-.576 5.573z" fill="#0A7AFF" fill-rule="nonzero"/>
</svg>
