<svg width="23" height="22" xmlns="http://www.w3.org/2000/svg">
    <path d="M11.2.733C5.014.733 0 5.366 0 11.08c0 5.715 5.014 10.348 11.2 10.348 6.186 0 11.2-4.633 11.2-10.348 0-2.744-1.18-5.376-3.28-7.316C17.02 1.823 14.17.733 11.2.733zm.467.862c1.207.049 2.395.296 3.509.729l-3.51 3.246V1.595zm0 5.174 4.4-4.057c.742.37 1.431.824 2.054 1.35l-6.454 5.975V6.769zm7.112-2.078a9.56 9.56 0 0 1 1.516 2l-4.293 3.958h-3.677l6.454-5.958zm1.936 2.832c.442.995.696 2.052.752 3.126h-4.144l3.392-3.126zm-9.982-5.928V10.9l-7.116 6.567C.93 14.748.19 10.84 1.714 7.44c1.525-3.4 5.04-5.678 9.02-5.845zm.467 18.97c-2.563.002-5.033-.886-6.92-2.487l7.107-6.567h10.08c0 .144-.011.288-.033.432-.483 4.887-4.922 8.627-10.234 8.622z" fill="#505050" fill-rule="nonzero"/>
</svg>
