<svg width="23" height="23" xmlns="http://www.w3.org/2000/svg">
    <path d="M11.2 0C5.014 0 0 5.014 0 11.2c0 6.186 5.014 11.2 11.2 11.2 6.186 0 11.2-5.014 11.2-11.2A11.2 11.2 0 0 0 11.2 0zm.467.933c1.207.053 2.395.32 3.509.789l-3.51 3.514V.933zm0 5.6 4.4-4.391c.742.401 1.431.892 2.054 1.46l-6.454 6.469V6.533zm7.112-2.249a10.313 10.313 0 0 1 1.516 2.165l-4.293 4.284h-3.677l6.454-6.449zm1.936 3.066c.442 1.077.696 2.22.752 3.383h-4.144l3.392-3.383zM10.733.933v10.071l-7.116 7.107A10.267 10.267 0 0 1 10.733.933zm.467 20.534a10.225 10.225 0 0 1-6.92-2.693l7.107-7.107h10.08c0 .155-.011.31-.033.466A10.267 10.267 0 0 1 11.2 21.467z" fill="#505050" fill-rule="nonzero"/>
</svg>
