<svg width="265" height="35" xmlns="http://www.w3.org/2000/svg">
    <defs>
        <linearGradient x1="100%" y1="50.787%" x2="0%" y2="49.213%" id="a">
            <stop stop-color="#6A11CB" offset="0%"/>
            <stop stop-color="#2575FC" offset="100%"/>
        </linearGradient>
        <linearGradient x1="100%" y1="50.527%" x2="0%" y2="49.473%" id="b">
            <stop stop-color="#6A11CB" offset="0%"/>
            <stop stop-color="#2575FC" offset="100%"/>
        </linearGradient>
        <linearGradient x1="100%" y1="50.416%" x2="0%" y2="49.584%" id="c">
            <stop stop-color="#6A11CB" offset="0%"/>
            <stop stop-color="#2575FC" offset="100%"/>
        </linearGradient>
        <linearGradient x1="100%" y1="50.74%" x2="0%" y2="49.26%" id="d">
            <stop stop-color="#6A11CB" offset="0%"/>
            <stop stop-color="#2575FC" offset="100%"/>
        </linearGradient>
    </defs>
    <g fill="none" fill-rule="evenodd">
        <path d="M263 33c-11.891-14.705-28.683-30.301-47.735-29.115-20.917 1.302-26.528 21.71-47.926 22.356-25.135.76-30.387-27.01-54.912-26.225-24.152.772-31.905 28.12-55.992 25.011-11.977-1.546-15.547-7.018-27.865-8.28C22.04 16.08 12.599 18.617 0 33h263z" fill-opacity=".2" fill="url(#a)" transform="translate(1 1)"/>
        <path d="M263 32.751c-21.41-22.6-38.621-27.122-50.747-26.728-22.187.721-29.72 17.976-55.703 17.455-20.086-.402-21.809-10.84-40.799-9.358-22.283 1.738-25.953 16.58-43.825 15.062C54.287 27.685 50.32 12.588 34.43 11.981 20.14 11.436 8.02 23.06 0 33l263-.249z" fill-opacity=".2" fill="url(#b)" transform="translate(1 1)"/>
        <path d="M263 32.753C219.78 7.98 188.086 6.796 166.752 10.67c-29.53 5.363-36.233 19.871-67.258 19.098C74.116 29.138 61.363 19 33.11 22.831 18.46 24.817 7.022 29.558 0 33l263-.247z" fill-opacity=".2" fill="url(#c)" transform="translate(1 1)"/>
        <path d="M263 32c-11.891-14.26-28.683-29.382-47.735-28.232-20.917 1.262-26.528 21.052-47.926 21.678-25.135.736-30.387-26.19-54.912-25.43-24.152.75-31.905 27.268-55.992 24.253-11.977-1.5-15.547-6.806-27.865-8.029C22.04 15.592 12.599 18.054 0 32" stroke="url(#d)" opacity=".2" transform="translate(1 1)"/>
        <path d="M0 33c8.02-9.939 20.14-21.565 34.43-21.02 15.89.607 19.857 15.705 37.496 17.203 17.872 1.518 21.542-13.325 43.825-15.063 18.99-1.482 20.713 8.954 40.8 9.358 25.982.52 33.515-16.735 55.7-17.455 12.128-.395 29.34 4.128 50.749 26.728" stroke="url(#b)" opacity=".2" transform="translate(1 1)"/>
        <path d="M0 33c7.022-3.442 18.46-8.183 33.11-10.17 28.253-3.83 41.006 6.307 66.383 6.938 31.025.773 37.729-13.735 67.258-19.098C188.086 6.796 219.78 7.98 263 32.753" stroke="url(#c)" opacity=".2" transform="translate(1 1)"/>
    </g>
</svg>
