<svg width="22" height="22" xmlns="http://www.w3.org/2000/svg">
    <g fill="#505050" fill-rule="nonzero">
        <path d="M10.971 7.487c-2.02 0-3.657 1.513-3.657 3.38 0 1.865 1.638 3.378 3.657 3.378 2.02 0 3.658-1.513 3.658-3.379 0-.896-.386-1.755-1.072-2.389a3.816 3.816 0 0 0-2.586-.99zm0 5.913c-1.514 0-2.742-1.134-2.742-2.534s1.228-2.534 2.742-2.534c1.515 0 2.743 1.135 2.743 2.534a2.44 2.44 0 0 1-.803 1.792 2.862 2.862 0 0 1-1.94.742z"/>
        <path d="m19.694 12.805 2.249-.152V8.974l-2.25-.152c-.563-.045-1.053-.376-1.27-.86a1.318 1.318 0 0 1 .238-1.438l1.453-1.57-2.793-2.607-1.705 1.36a1.593 1.593 0 0 1-1.573.22c-.518-.186-.874-.632-.914-1.145L12.96.73H8.978l-.164 2.154c-.037.486-.352.802-.832 1.225l-.096-.064a1.593 1.593 0 0 1-1.545-.283l-1.72-1.39-2.815 2.581L3.282 6.53c.365.398.458.952.242 1.434-.217.482-.707.812-1.27.855L0 8.974v3.679l2.25.152c.559.046 1.044.376 1.26.855.216.48.127 1.03-.232 1.43l-1.472 1.592 2.816 2.601 1.71-1.364a1.593 1.593 0 0 1 1.567-.22c.523.21.876.67.915 1.196l.164 2.112h3.982l.165-2.112c.04-.521.393-.978.914-1.183l.082-.038a1.577 1.577 0 0 1 1.49.245l1.71 1.36 2.816-2.601-1.472-1.588a1.3 1.3 0 0 1-.238-1.453c.219-.476.708-.798 1.267-.832zm-1.724 2.85.915.985-1.614 1.49-1.065-.844a2.546 2.546 0 0 0-2.492-.368l-.091.043c-.809.34-1.352 1.06-1.417 1.879l-.096 1.318H9.824l-.105-1.322c-.067-.849-.642-1.59-1.49-1.922a2.546 2.546 0 0 0-2.492.368l-1.065.844-1.623-1.486.914-.984c.592-.64.746-1.533.399-2.31-.347-.78-1.136-1.312-2.044-1.382l-1.404-.097V9.755l1.404-.097c.91-.066 1.702-.598 2.05-1.377.35-.779.197-1.673-.395-2.314l-.915-.984L4.663 3.5l1.065.845a2.543 2.543 0 0 0 2.4.422l.1-.046c.85-.309 1.432-1.039 1.5-1.88l.1-1.266h2.286l.105 1.267c.085.834.665 1.555 1.504 1.871.84.316 1.8.174 2.492-.368L17.28 3.5l1.614 1.491-.915.984c-.588.643-.74 1.535-.39 2.312.348.778 1.138 1.31 2.045 1.38l1.395.093v2.111l-1.404.097c-.908.07-1.697.602-2.046 1.38-.348.777-.197 1.67.391 2.312v-.004z"/>
    </g>
</svg>
