<svg width="23" height="19" xmlns="http://www.w3.org/2000/svg">
    <path d="M7.933.876A2.333 2.333 0 0 0 5.6 3.21v.466h-.467A2.333 2.333 0 0 0 2.8 6.01v.466h-.275A2.53 2.53 0 0 0 0 9.001v9.609h14.275a2.53 2.53 0 0 0 2.525-2.525v-.275h.467a2.333 2.333 0 0 0 2.333-2.334v-.466h.467a2.333 2.333 0 0 0 2.333-2.334v-9.8H7.933zm7.934 15.209c0 .879-.713 1.591-1.592 1.591H.933V9.001c0-.879.713-1.591 1.592-1.591h13.342v8.675zm2.8-2.609a1.4 1.4 0 0 1-1.4 1.4H16.8v-8.4H3.733V6.01a1.4 1.4 0 0 1 1.4-1.4h13.534v8.866zm2.8-2.8a1.4 1.4 0 0 1-1.4 1.4H19.6v-8.4H6.533V3.21a1.4 1.4 0 0 1 1.4-1.4h13.534v8.866z" fill="#505050" fill-rule="nonzero"/>
</svg>
