<svg width="19" height="25" xmlns="http://www.w3.org/2000/svg">
    <path d="m16.852 19.622-3.525-1.961a1.079 1.079 0 0 1-.594-.97l-.002-.982a9.482 9.482 0 0 0 1.63-3.33c.007-.03.01-.06.01-.091v-.82H15.6a1.23 1.23 0 0 0 1.229-1.228V7.782a1.227 1.227 0 0 0-.82-1.153v-.075a6.554 6.554 0 0 0-13.107 0v.075c-.49.172-.817.634-.819 1.153v2.458c.002.519.33.98.82 1.153v.895a1.64 1.64 0 0 0 1.638 1.638h.563c.299.628.659 1.224 1.075 1.78v.944c.002.397-.215.763-.565.951l-3.652 1.995a3.686 3.686 0 0 0-1.927 3.243v1.327a.41.41 0 0 0 .41.41h18.022a.41.41 0 0 0 .41-.41v-1.245a3.673 3.673 0 0 0-2.025-3.299zm-.842-11.84v2.458a.41.41 0 0 1-.41.41h-1.229V7.373H15.6a.41.41 0 0 1 .41.41zM3.312 10.65a.41.41 0 0 1-.41-.41V7.782a.41.41 0 0 1 .41-.41h1.229v3.278H3.312zm1.229 2.457a.82.82 0 0 1-.82-.819v-.82h.82v.82c0 .03.003.062.01.092.059.246.131.489.217.727H4.54zm-.002-6.553h-.817A5.74 5.74 0 0 1 9.456.819a5.74 5.74 0 0 1 5.734 5.735h-.817a3.664 3.664 0 0 0-.858-2.65c-.841-.96-2.207-1.446-4.059-1.446-1.852 0-3.218.486-4.059 1.446a3.664 3.664 0 0 0-.858 2.65zM.854 23.757v-.918a2.868 2.868 0 0 1 1.5-2.524l3.65-1.993c.615-.332.996-.974.994-1.672v-.944a.808.808 0 0 0-.166-.494 9.738 9.738 0 0 1-.813-1.286h1.874c.173.49.634.818 1.153.82h1.23a1.229 1.229 0 0 0 0-2.458h-1.23c-.519.002-.98.33-1.153.82H5.641a6.369 6.369 0 0 1-.281-.867V6.554a2.842 2.842 0 0 1 .653-2.11c.679-.775 1.837-1.167 3.443-1.167 1.6 0 2.756.39 3.436 1.158a2.88 2.88 0 0 1 .66 2.119v5.687a8.666 8.666 0 0 1-1.472 2.97.808.808 0 0 0-.166.495v.985a1.886 1.886 0 0 0 1.03 1.693l3.525 1.962a2.866 2.866 0 0 1 1.589 2.575v.836H.854zm7.783-10.24a.41.41 0 0 1 .41-.41h1.228a.41.41 0 0 1 0 .82H9.046a.41.41 0 0 1-.41-.41z" fill="#0A7AFF" fill-rule="nonzero"/>
</svg>
