<svg width="16" height="17" xmlns="http://www.w3.org/2000/svg">
    <g fill="#000" fill-rule="evenodd">
        <path d="M.202 11.702a.7.7 0 0 1 1.401 0v2.1a.7.7 0 0 0 .7.7h9.806a.7.7 0 0 0 .7-.7v-2.1a.7.7 0 0 1 1.401 0v2.1a2.1 2.1 0 0 1-2.1 2.1H2.303a2.1 2.1 0 0 1-2.102-2.1v-2.1z"/>
        <path d="M9.513 7.706a.7.7 0 0 1 .99.99l-2.801 2.8a.7.7 0 0 1-.99 0l-2.802-2.8a.7.7 0 1 1 .99-.99l2.306 2.306 2.307-2.306z"/>
        <path d="M6.506 1.2a.7.7 0 0 1 1.4 0v9.802a.7.7 0 0 1-1.4 0V1.2z"/>
    </g>
</svg>
