<svg width="23" height="23" xmlns="http://www.w3.org/2000/svg">
    <g fill="#505050" fill-rule="nonzero">
        <path d="M11.04 0C4.943 0 0 4.943 0 11.04c0 6.097 4.943 11.04 11.04 11.04 6.097 0 11.04-4.943 11.04-11.04A11.04 11.04 0 0 0 11.04 0zm0 .92a10.12 10.12 0 0 1 8.156 16.1c-.336-1.104-1.256-1.992-2.636-2.429l-5.52-1.03-5.451 1.026a3.57 3.57 0 0 0-2.705 2.433A10.12 10.12 0 0 1 11.04.92zm0 20.24a10.092 10.092 0 0 1-7.36-3.183v-.115c0-1.38 1.1-2.12 2.107-2.374l5.253-.989 5.249.98c.653.207 2.111.846 2.111 2.378v.12a10.092 10.092 0 0 1-7.36 3.183z"/>
        <path d="M7.728 8.699c.354 1.982 1.656 3.261 3.312 3.261s2.935-1.247 3.312-3.252c.06-.304.35-1.84.363-2.227a3.473 3.473 0 0 0-.97-2.571 3.763 3.763 0 0 0-5.433.023 3.413 3.413 0 0 0-.952 2.553c.028.382.336 2.033.368 2.213zm1.251-4.14a2.843 2.843 0 0 1 4.099 0c.488.501.749 1.181.722 1.881 0 .24-.22 1.412-.35 2.093-.23 1.214-.984 2.507-2.41 2.507-1.426 0-2.199-1.348-2.406-2.502-.129-.686-.354-1.859-.354-2.098a2.498 2.498 0 0 1 .7-1.877V4.56z"/>
    </g>
</svg>
