<svg width="28" height="20" xmlns="http://www.w3.org/2000/svg">
    <g fill="#505050" fill-rule="nonzero">
        <path d="M5.8 6.56c.405 2.143 1.905 3.53 3.82 3.53 1.915 0 3.385-1.35 3.82-3.525.07-.332.405-2.014.425-2.422a3.626 3.626 0 0 0-1.105-2.765A4.502 4.502 0 0 0 9.596.118a4.498 4.498 0 0 0-3.151 1.289 3.559 3.559 0 0 0-1.07 2.745c.025.414.385 2.21.425 2.409zm1.375-4.502a3.474 3.474 0 0 1 2.433-.98c.917 0 1.794.354 2.432.98.563.551.861 1.299.825 2.066 0 .261-.255 1.544-.41 2.285-.265 1.306-1.15 2.73-2.835 2.73S7 7.659 6.78 6.386c-.15-.746-.39-2.028-.41-2.294-.04-.755.251-1.491.805-2.033zM15.73 12.332l-6.11-.78-6.075.766c-1.5.28-3.135 1.273-3.345 2.85L0 19.115h19.385l-.24-3.757c-.105-1.554-1.375-2.684-3.415-3.026zM.925 18.165l.265-2.874c.145-1.107 1.42-1.833 2.5-2.038l5.925-.74 5.955.755c.74.123 2.47.584 2.575 2.147l.18 2.75H.925zM16.965 8.408c.335 1.744 1.575 2.85 3.155 2.85 1.58 0 2.795-1.097 3.155-2.85.055-.266.325-1.596.34-1.928a2.943 2.943 0 0 0-.895-2.242 3.73 3.73 0 0 0-2.612-1.052 3.73 3.73 0 0 0-2.613 1.052 2.89 2.89 0 0 0-.87 2.228c.02.356.285 1.686.34 1.942zm1.26-3.49a2.705 2.705 0 0 1 1.887-.757c.711 0 1.392.272 1.888.756.422.412.646.97.62 1.544 0 .19-.195 1.164-.325 1.79-.1.476-.555 2.095-2.175 2.095-1.305 0-2-1.078-2.17-2.094-.12-.585-.31-1.592-.325-1.796a1.975 1.975 0 0 1 .595-1.539h.005zM22 19.115h6l-.055-3.572c-.105-1.287-1.15-2.228-2.83-2.513l-4.935-.565-.12.95 4.91.56c.565.095 1.885.447 2 1.634l.12 2.556H22v.95z"/>
    </g>
</svg>
