<svg xmlns="http://www.w3.org/2000/svg" width="264" height="35" viewBox="0 0 264 35">
    <defs>
        <linearGradient id="q2t4p729ea" x1="16.8%" x2="100%" y1="50.793%" y2="49.207%">
            <stop offset="0%" stop-color="#F83600"/>
            <stop offset="100%" stop-color="#F7932D"/>
        </linearGradient>
        <linearGradient id="kgbwzadwnb" x1="16.8%" x2="100%" y1="50.531%" y2="49.469%">
            <stop offset="0%" stop-color="#F83600"/>
            <stop offset="100%" stop-color="#F7932D"/>
        </linearGradient>
        <linearGradient id="kr62axtvgc" x1="16.8%" x2="100%" y1="50.42%" y2="49.58%">
            <stop offset="0%" stop-color="#F83600"/>
            <stop offset="100%" stop-color="#F7932D"/>
        </linearGradient>
        <linearGradient id="2gjk1hrfgd" x1="16.8%" x2="100%" y1="50.746%" y2="49.254%">
            <stop offset="0%" stop-color="#F83600"/>
            <stop offset="100%" stop-color="#F7932D"/>
        </linearGradient>
    </defs>
    <g fill="none" fill-rule="evenodd">
        <g>
            <g>
                <g>
                    <g>
                        <path fill="url(#q2t4p729ea)" fill-opacity=".2" d="M262 33c-11.846-14.705-28.574-30.301-47.554-29.115-20.837 1.302-26.426 21.71-47.743 22.356-25.04.76-30.272-27.01-54.703-26.225-24.061.772-31.784 28.12-55.78 25.011-11.93-1.546-15.488-7.018-27.759-8.28C21.957 16.08 12.551 18.617 0 33h262z" transform="translate(-1161.000000, -114.000000) translate(1095.000000, 0.000000) translate(16.000000, 115.000000) translate(51.000000, 0.000000)"/>
                        <path fill="url(#kgbwzadwnb)" fill-opacity=".2" d="M262 32.751c-21.328-22.6-38.475-27.122-50.555-26.728-22.102.721-29.606 17.976-55.49 17.455-20.01-.402-21.726-10.84-40.644-9.358-22.198 1.738-25.855 16.58-43.659 15.062C54.081 27.685 50.128 12.588 34.3 11.981 20.064 11.436 7.99 23.06 0 33l262-.249z" transform="translate(-1161.000000, -114.000000) translate(1095.000000, 0.000000) translate(16.000000, 115.000000) translate(51.000000, 0.000000)"/>
                        <path fill="url(#kr62axtvgc)" fill-opacity=".2" d="M262 32.753C218.944 7.98 187.371 6.796 166.118 10.67c-29.418 5.363-36.095 19.871-67.002 19.098C73.834 29.138 61.13 19 32.984 22.831 18.389 24.817 6.994 29.558 0 33l262-.247z" transform="translate(-1161.000000, -114.000000) translate(1095.000000, 0.000000) translate(16.000000, 115.000000) translate(51.000000, 0.000000)"/>
                        <path stroke="url(#2gjk1hrfgd)" d="M262 32c-11.846-14.26-28.574-29.382-47.554-28.232C193.61 5.03 188.02 24.82 166.703 25.446c-25.04.736-30.272-26.19-54.703-25.43-24.061.75-31.784 27.268-55.78 24.253-11.93-1.5-15.488-6.806-27.759-8.029C21.957 15.592 12.551 18.054 0 32" opacity=".2" transform="translate(-1161.000000, -114.000000) translate(1095.000000, 0.000000) translate(16.000000, 115.000000) translate(51.000000, 0.000000)"/>
                        <path stroke="url(#kgbwzadwnb)" d="M0 33c7.99-9.939 20.064-21.565 34.3-21.02 15.828.607 19.78 15.705 37.352 17.203 17.804 1.518 21.461-13.325 43.66-15.063 18.917-1.482 20.633 8.954 40.643 9.358 25.884.52 33.388-16.735 55.49-17.455 12.08-.395 29.227 4.128 50.555 26.728" opacity=".2" transform="translate(-1161.000000, -114.000000) translate(1095.000000, 0.000000) translate(16.000000, 115.000000) translate(51.000000, 0.000000)"/>
                        <path stroke="url(#kr62axtvgc)" d="M0 33c6.995-3.442 18.39-8.183 32.984-10.17 28.146-3.83 40.85 6.307 66.13 6.938 30.908.773 37.586-13.735 67.003-19.098C187.371 6.796 218.944 7.98 262 32.753" opacity=".2" transform="translate(-1161.000000, -114.000000) translate(1095.000000, 0.000000) translate(16.000000, 115.000000) translate(51.000000, 0.000000)"/>                        
                    </g>
                </g>
            </g>
        </g>
    </g>
</svg>
