<svg xmlns="http://www.w3.org/2000/svg" width="263" height="35" viewBox="0 0 263 35">
    <defs>
        <linearGradient id="sf1zmjcgja" x1="50%" x2="50%" y1="0%" y2="100%">
            <stop offset="0%" stop-color="#F9D423"/>
            <stop offset="100%" stop-color="#FEBC40"/>
        </linearGradient>
        <linearGradient id="yhbtpm0oxb" x1="50%" x2="50%" y1="0%" y2="100%">
            <stop offset="0%" stop-color="#F9D423"/>
            <stop offset="100%" stop-color="#FEBC40"/>
        </linearGradient>
        <linearGradient id="ceo9lhd7ec" x1="50%" x2="50%" y1="0%" y2="100%">
            <stop offset="0%" stop-color="#F9D423"/>
            <stop offset="100%" stop-color="#FEBC40"/>
        </linearGradient>
        <linearGradient id="e4a64mbwad" x1="50%" x2="50%" y1="0%" y2="100%">
            <stop offset="0%" stop-color="#F9D423"/>
            <stop offset="100%" stop-color="#FEBC40"/>
        </linearGradient>
    </defs>
    <g fill="none" fill-rule="evenodd">
        <g>
            <g>
                <g>
                    <g>
                        <path fill="url(#sf1zmjcgja)" fill-opacity=".2" d="M261.494 33c-11.824-14.705-28.52-30.301-47.462-29.115-20.797 1.302-26.376 21.71-47.651 22.356-24.991.76-30.214-27.01-54.598-26.225-24.014.772-31.722 28.12-55.671 25.011-11.908-1.546-15.458-7.018-27.706-8.28C21.915 16.08 12.526 18.617 0 33h261.494z" transform="translate(-1162.000000, -185.000000) translate(1095.000000, 0.000000) translate(16.000000, 186.000000) translate(51.506329, 0.000000)"/>
                        <path fill="url(#yhbtpm0oxb)" fill-opacity=".2" d="M261.494 32.751c-21.287-22.6-38.4-27.122-50.457-26.728-22.06.721-29.55 17.976-55.383 17.455-19.972-.402-21.685-10.84-40.566-9.358-22.155 1.738-25.805 16.58-43.574 15.062-17.538-1.497-21.482-16.594-37.28-17.201C20.024 11.436 7.975 23.06 0 33l261.494-.249z" transform="translate(-1162.000000, -185.000000) translate(1095.000000, 0.000000) translate(16.000000, 186.000000) translate(51.506329, 0.000000)"/>
                        <path fill="url(#ceo9lhd7ec)" fill-opacity=".2" d="M261.494 32.753C218.52 7.98 187.009 6.796 165.797 10.67c-29.36 5.363-36.025 19.871-66.873 19.098C73.691 29.138 61.011 19 32.92 22.831 18.354 24.817 6.981 29.558 0 33l261.494-.247z" transform="translate(-1162.000000, -185.000000) translate(1095.000000, 0.000000) translate(16.000000, 186.000000) translate(51.506329, 0.000000)"/>
                        <path stroke="url(#e4a64mbwad)" d="M261.494 32c-11.824-14.26-28.52-29.382-47.462-28.232-20.797 1.262-26.376 21.052-47.651 21.678-24.991.736-30.214-26.19-54.598-25.43-24.014.75-31.722 27.268-55.671 24.253-11.908-1.5-15.458-6.806-27.706-8.029C21.915 15.592 12.526 18.054 0 32" opacity=".2" transform="translate(-1162.000000, -185.000000) translate(1095.000000, 0.000000) translate(16.000000, 186.000000) translate(51.506329, 0.000000)"/>
                        <path stroke="url(#yhbtpm0oxb)" d="M0 33c7.975-9.939 20.025-21.565 34.233-21.02 15.799.607 19.743 15.705 37.28 17.203 17.77 1.518 21.42-13.325 43.575-15.063 18.881-1.482 20.594 8.954 40.566 9.358 25.833.52 33.323-16.735 55.382-17.455 12.057-.395 29.171 4.128 50.458 26.728" opacity=".2" transform="translate(-1162.000000, -185.000000) translate(1095.000000, 0.000000) translate(16.000000, 186.000000) translate(51.506329, 0.000000)"/>
                        <path stroke="url(#ceo9lhd7ec)" d="M0 33c6.981-3.442 18.354-8.183 32.92-10.17 28.091-3.83 40.771 6.307 66.003 6.938 30.848.773 37.513-13.735 66.873-19.098 21.213-3.874 52.725-2.69 95.698 22.083" opacity=".2" transform="translate(-1162.000000, -185.000000) translate(1095.000000, 0.000000) translate(16.000000, 186.000000) translate(51.506329, 0.000000)"/>
                    </g>
                </g>
            </g>
        </g>
    </g>
</svg>
